<svg version="1.1" id="Layer_1" xmlns="http://www.w3.org/2000/svg" xmlns:xlink="http://www.w3.org/1999/xlink" x="0px" y="0px"
	 width="100%" viewBox="0 0 2560 496" enable-background="new 0 0 2560 496" xml:space="preserve">
<path fill="#000000" opacity="1.000000" stroke="none" 
	d="
M2555.000000,497.000000 
	C1705.958984,497.000000 856.917969,497.000000 7.124076,496.628510 
	C6.199735,490.521667 6.028272,484.786316 5.936197,478.585022 
	C5.962288,469.396271 5.908990,460.673492 5.992316,451.575500 
	C6.270492,332.951965 6.447106,214.703598 6.517653,96.455200 
	C6.528870,77.653442 6.063110,58.851402 5.894309,39.583149 
	C5.784216,27.772123 5.597682,16.427443 5.546947,4.672179 
	C5.788497,3.174398 5.894248,2.087199 6.000000,1.000000 
	C855.041016,1.000000 1704.082031,1.000000 2553.903320,1.355114 
	C2554.505615,66.185287 2554.326172,130.660339 2554.165039,195.135437 
	C2554.162598,196.117706 2554.387207,197.100510 2554.411377,198.537109 
	C2554.310547,242.812698 2554.277344,286.634308 2554.309326,330.455841 
	C2554.324951,351.610291 2554.462646,372.764679 2554.398438,394.349060 
	C2554.353516,396.881622 2554.454834,398.984253 2554.462891,401.513824 
	C2554.429443,404.266632 2554.489746,406.592560 2554.402344,409.353210 
	C2554.358154,412.221313 2554.461914,414.654633 2554.474121,417.541931 
	C2554.389404,422.159332 2554.390869,426.322784 2554.403809,430.486206 
	C2554.466309,450.626007 2554.531738,470.765839 2554.452637,491.261017 
	C2554.473633,493.096069 2554.638184,494.575775 2554.749023,496.313110 
	C2554.797119,496.713837 2554.898682,496.856903 2555.000000,497.000000 
M2394.006836,173.897308 
	C2391.238037,180.230240 2388.951172,186.830917 2385.608154,192.844543 
	C2376.566406,209.109726 2367.104248,225.141983 2357.749756,241.232162 
	C2353.879883,247.888321 2349.859863,254.456970 2345.504883,261.739746 
	C2344.100098,259.523865 2343.121338,258.209747 2342.381592,256.772827 
	C2339.487793,251.152756 2336.752930,245.450058 2333.808350,239.857468 
	C2323.348145,219.989685 2312.632568,200.253021 2302.445557,180.246902 
	C2299.419922,174.305283 2297.813232,167.641083 2295.236084,160.408997 
	C2302.755371,159.112030 2309.085693,157.993317 2315.426270,156.936401 
	C2319.356445,156.281235 2322.929199,155.215759 2324.165771,149.854950 
	C2322.092041,149.455139 2320.101562,148.750336 2318.105713,148.734818 
	C2289.283691,148.510651 2260.460449,148.342575 2231.637695,148.258255 
	C2226.312500,148.242676 2220.981934,148.589951 2215.664062,148.926834 
	C2214.634033,148.992065 2212.837158,149.749191 2212.812500,150.255768 
	C2212.759033,151.361465 2213.308350,152.935318 2214.164062,153.560791 
	C2216.416748,155.207138 2218.811035,156.947159 2221.425293,157.753143 
	C2227.864746,159.738297 2232.426025,163.687012 2235.672607,169.450638 
	C2255.315674,204.323730 2275.157715,239.087082 2294.463623,274.145966 
	C2297.491699,279.645020 2299.247559,286.397583 2299.622314,292.687927 
	C2300.364258,305.134552 2299.884521,317.666809 2299.595215,330.156372 
	C2299.464844,335.792328 2298.904541,341.466431 2297.949951,347.022003 
	C2296.942627,352.884186 2293.455811,356.931671 2287.344727,358.213806 
	C2283.275879,359.067505 2279.212402,359.951569 2275.126709,360.716888 
	C2271.897705,361.321747 2268.193115,361.960449 2269.174561,366.171265 
	C2269.487793,367.515869 2273.271484,368.743439 2275.512695,368.827911 
	C2285.499756,369.204407 2295.502686,369.166748 2305.500488,369.243439 
	C2330.326904,369.433838 2355.153076,369.651978 2379.979736,369.688843 
	C2381.839111,369.691620 2383.700439,368.342896 2385.561035,367.622437 
	C2384.024414,366.150055 2382.736572,364.020905 2380.905029,363.327148 
	C2375.160645,361.151062 2369.223389,359.477325 2363.338379,357.682068 
	C2357.939941,356.035370 2354.919678,352.593384 2354.809570,346.823914 
	C2354.419189,326.348969 2354.231689,305.867035 2353.527100,285.402893 
	C2353.264404,277.777557 2354.754150,270.891418 2358.598633,264.420349 
	C2373.887451,238.686783 2389.030518,212.864792 2404.540527,187.265396 
	C2412.230225,174.573822 2420.536133,162.273148 2434.315918,155.049118 
	C2436.102783,154.112289 2437.242188,151.941254 2439.636963,149.280289 
	C2435.861816,149.030792 2433.774170,148.795227 2431.684082,148.769928 
	C2412.859863,148.542023 2394.034912,148.332031 2375.209717,148.175217 
	C2373.059326,148.157288 2370.875244,148.336060 2368.766113,148.736557 
	C2367.614746,148.955124 2365.706055,149.796768 2365.682129,150.417252 
	C2365.624756,151.897369 2366.073242,153.841675 2367.078369,154.804108 
	C2368.296631,155.970520 2370.257080,156.445587 2371.967529,156.999496 
	C2378.745361,159.194351 2385.551270,161.303284 2391.997314,164.175903 
	C2389.677002,167.862610 2392.547852,170.344116 2394.006836,173.897308 
M136.796570,211.250076 
	C120.617752,246.251419 118.454391,281.511566 136.226440,316.508240 
	C153.608231,350.736450 181.306778,372.002319 219.438263,378.260712 
	C256.230621,384.299225 291.280884,376.011322 325.496155,363.175201 
	C327.875671,362.282501 330.081604,359.372955 331.130554,356.880432 
	C332.445801,353.755066 332.850616,350.107635 333.002716,346.657043 
	C333.516235,335.007935 333.701965,323.344849 334.090881,311.689697 
	C334.691925,293.677856 335.777649,292.558197 353.049744,287.875610 
	C355.866943,287.111786 358.153748,284.391510 360.685669,282.575500 
	C358.027557,281.671051 355.411591,280.594727 352.695160,279.927917 
	C351.117950,279.540741 349.379211,279.787750 347.713226,279.789337 
	C322.552032,279.813324 297.390839,279.840332 272.229645,279.875458 
	C265.733795,279.884521 259.233917,279.800140 252.744461,280.016479 
	C250.475281,280.092102 247.251968,279.601562 247.470947,283.585815 
	C247.656479,286.961609 249.858612,287.773132 252.885864,288.107758 
	C259.489410,288.837646 266.058350,289.892303 272.632111,290.876373 
	C277.021240,291.533478 279.788177,294.358185 279.900177,298.552368 
	C280.357239,315.665009 280.762482,332.792175 280.519562,349.904510 
	C280.409271,357.673920 275.351196,362.665833 268.049622,365.096466 
	C254.804794,369.505615 241.236588,369.529816 228.253098,365.146149 
	C210.311569,359.088440 199.672455,345.258118 193.060501,328.027527 
	C186.229706,310.226654 183.531555,291.624573 183.251373,272.722198 
	C182.850296,245.665176 184.695663,219.033981 194.554977,193.180862 
	C207.531799,159.153030 246.789703,151.083252 272.521240,165.681183 
	C288.216614,174.585434 299.261505,187.941910 308.903290,202.710526 
	C313.533691,209.803070 317.851959,217.102966 322.617950,224.100327 
	C323.560638,225.484390 325.903320,225.914932 327.600342,226.785187 
	C328.207306,225.066071 329.340332,223.347458 329.341949,221.627792 
	C329.363861,197.819626 329.237305,174.011292 329.117676,150.203140 
	C329.110596,148.792328 328.853577,147.382767 328.661865,145.461365 
	C323.113037,147.417084 319.499237,150.724960 316.497467,155.061752 
	C309.359619,165.374176 303.776550,166.778290 292.823730,160.959518 
	C270.509552,149.104889 246.941147,144.427948 221.901596,148.623108 
	C183.320679,155.086990 154.988831,175.744904 136.796570,211.250076 
M1703.846680,173.492249 
	C1703.624390,183.148209 1703.075684,192.812393 1703.319336,202.456604 
	C1703.438721,207.187531 1705.028687,211.881348 1705.953125,216.591949 
	C1706.606689,216.618195 1707.260254,216.644440 1707.913818,216.670685 
	C1709.314575,214.509216 1711.080200,212.496887 1712.038086,210.154312 
	C1713.858643,205.702438 1715.122803,201.027008 1716.782227,196.504684 
	C1729.220459,162.610825 1744.454834,160.036209 1775.846313,160.523926 
	C1775.846313,161.314697 1775.850342,162.112167 1775.845703,162.909592 
	C1775.503418,222.051056 1775.188232,281.192688 1774.797974,340.333862 
	C1774.701904,354.884552 1772.096558,357.545746 1757.581909,359.091309 
	C1753.952271,359.477814 1750.124146,359.651459 1746.838501,361.012390 
	C1744.789795,361.860962 1743.587158,364.751862 1742.004883,366.726318 
	C1743.973877,367.479279 1745.935303,368.865173 1747.913208,368.889130 
	C1773.067627,369.193848 1798.224365,369.304901 1823.380615,369.460938 
	C1834.874878,369.532227 1846.369751,369.670227 1857.862427,369.568573 
	C1859.387451,369.555054 1860.901367,368.301331 1862.420288,367.622009 
	C1861.479736,365.804291 1860.789429,363.774719 1859.500610,362.251587 
	C1858.778809,361.398590 1857.086182,361.284912 1855.794434,361.012726 
	C1852.704224,360.361572 1849.558105,359.952942 1846.494873,359.201080 
	C1830.245239,355.212646 1830.488647,357.819702 1830.280884,339.967529 
	C1829.625610,283.662903 1829.633667,227.350494 1829.427734,171.040955 
	C1829.415771,167.761719 1829.781372,164.481110 1829.967041,161.273056 
	C1856.813843,157.032654 1873.093018,164.326492 1884.816284,188.555298 
	C1888.055786,195.250778 1890.196655,202.475616 1892.888306,209.439514 
	C1894.140381,212.678665 1895.579224,215.798004 1900.346069,216.490173 
	C1900.346069,193.830978 1900.346069,171.524704 1900.346069,148.779480 
	C1834.514526,148.779480 1769.473999,148.779480 1703.865723,148.779480 
	C1703.865723,157.244370 1703.865723,164.869507 1703.846680,173.492249 
M715.743103,179.242432 
	C697.144714,196.545502 685.965454,217.683701 682.488037,242.922699 
	C679.775391,262.610504 679.147522,282.405121 685.761719,301.254028 
	C700.087158,342.078094 727.922485,369.033112 770.997620,377.667511 
	C812.720093,386.030762 849.244141,375.304474 878.920288,344.135162 
	C882.603760,340.266327 885.027039,335.100677 887.559814,330.286316 
	C888.438293,328.616425 887.878479,326.189850 887.975586,324.108856 
	C885.939087,324.287201 883.616150,323.908112 881.932556,324.773224 
	C879.346191,326.102203 876.771118,327.934143 874.935974,330.165222 
	C863.795471,343.709106 849.462158,352.607483 833.223389,358.351562 
	C818.776367,363.461884 803.809265,366.306976 788.614380,361.694305 
	C763.722961,354.138092 749.848206,336.542175 744.227234,311.742371 
	C736.432678,277.352264 737.340759,242.915863 744.577087,208.645782 
	C747.419495,195.184540 753.159546,182.725983 763.348816,172.884399 
	C782.558350,154.330246 813.685120,156.423981 832.136169,167.918076 
	C845.054260,175.965408 854.544617,187.192413 862.788269,199.619156 
	C867.746399,207.093185 872.073425,214.984039 876.959473,222.508820 
	C878.641052,225.098587 881.156738,227.146759 884.124268,230.338013 
	C884.588623,227.118195 885.021484,225.502869 885.024658,223.886688 
	C885.073669,198.897003 885.089905,173.907104 885.010437,148.917603 
	C885.006165,147.566879 884.278076,145.216660 883.562927,145.084427 
	C882.192871,144.831100 880.062927,145.383041 879.178162,146.405487 
	C876.035278,150.037689 873.255127,153.987274 870.390320,157.855713 
	C864.001709,166.482407 861.964722,166.821640 852.368103,162.249741 
	C839.464294,156.102203 826.484741,149.845810 812.123474,147.997864 
	C775.432251,143.276627 743.234009,152.984009 715.743103,179.242432 
M1340.500244,369.470612 
	C1350.492188,369.701263 1360.483521,369.992706 1370.476807,370.087006 
	C1371.750610,370.098999 1374.090454,369.110840 1374.106323,368.535400 
	C1374.147217,367.061890 1373.530640,365.163269 1372.480835,364.171783 
	C1371.231934,362.992218 1369.302856,362.444702 1367.587158,361.863495 
	C1362.079834,359.997742 1356.611450,357.935455 1350.982300,356.534210 
	C1345.691284,355.217133 1343.973267,352.339569 1343.972412,346.971558 
	C1343.964966,305.656830 1343.541992,264.341949 1343.588257,223.027527 
	C1343.609741,203.882263 1344.450195,184.738846 1344.772705,165.592117 
	C1344.832275,162.053314 1346.494019,160.653320 1349.677002,160.029114 
	C1355.709961,158.846024 1361.798828,157.779144 1367.664185,156.002945 
	C1369.712280,155.382721 1371.170410,152.814346 1372.897949,151.135666 
	C1370.945679,150.371063 1369.001343,148.962433 1367.039795,148.937958 
	C1334.725830,148.534454 1302.409790,148.297684 1270.093994,148.053772 
	C1267.934570,148.037491 1265.762451,148.164871 1263.615112,148.398270 
	C1259.610352,148.833527 1258.883911,151.422333 1260.628784,154.377167 
	C1261.572876,155.975922 1263.683472,157.393036 1265.527710,157.855286 
	C1270.514038,159.105026 1275.607788,160.175110 1280.718872,160.606491 
	C1285.602295,161.018646 1287.487549,163.739868 1287.850464,167.971970 
	C1288.347900,173.775040 1288.817749,179.603180 1288.829712,185.421539 
	C1288.923828,231.235565 1288.939453,277.049866 1288.891968,322.864014 
	C1288.883423,331.187500 1288.542847,339.513062 1288.228271,347.832886 
	C1288.044189,352.698425 1285.695557,356.051208 1280.722778,357.052002 
	C1275.515869,358.100006 1270.282349,359.017426 1265.055908,359.966766 
	C1260.896606,360.722321 1258.713257,363.092529 1258.615112,368.641083 
	C1285.718750,368.907196 1312.609619,369.171234 1340.500244,369.470612 
M1062.448364,163.500854 
	C1062.396484,151.007278 1062.272217,138.513321 1062.340332,126.020401 
	C1062.358765,122.624199 1061.515747,120.672943 1057.681641,120.642639 
	C1049.856689,120.580803 1042.032593,120.316154 1034.210205,120.068230 
	C1031.429565,119.980103 1030.249390,121.282516 1030.289307,123.963249 
	C1030.309082,125.294502 1030.196167,126.627266 1030.196411,127.959343 
	C1030.221680,221.246552 1030.248901,314.533783 1030.303467,407.820984 
	C1030.304688,409.976776 1030.404175,412.180878 1030.876587,414.267578 
	C1031.111206,415.304504 1032.283081,416.911377 1033.055664,416.925751 
	C1042.806641,417.107178 1052.561890,417.044952 1062.450195,417.044952 
	C1062.450195,332.391663 1062.450195,248.446243 1062.448364,163.500854 
M536.864380,136.506287 
	C536.895752,132.507217 537.161072,128.488602 536.829529,124.519859 
	C536.716003,123.160828 535.139648,120.833740 534.176208,120.804977 
	C524.758484,120.523743 515.328979,120.635536 505.513428,120.635536 
	C505.513428,123.148628 505.516632,124.799171 505.512909,126.449699 
	C505.348297,199.434708 505.120209,272.419647 505.056335,345.404755 
	C505.037231,367.232025 505.587280,389.059540 505.620911,410.887329 
	C505.628326,415.696869 507.343079,417.334167 512.032715,417.116791 
	C518.351196,416.823944 524.694763,416.948547 531.024475,417.062378 
	C535.336304,417.139923 536.927429,415.718597 536.919800,410.950897 
	C536.773682,319.801971 536.837646,228.652725 536.864380,136.506287 
M2067.231201,373.497559 
	C2067.188477,364.665131 2067.113525,355.832764 2067.108154,347.000305 
	C2067.061768,273.340027 2066.989014,199.679733 2067.086182,126.019638 
	C2067.092041,121.557228 2065.524658,120.050858 2061.370605,120.108940 
	C2056.040527,120.183487 2050.706787,119.978493 2045.374756,119.977760 
	C2034.999756,119.976341 2034.955078,120.000458 2034.940308,130.378616 
	C2034.850830,193.539673 2034.757935,256.700775 2034.720459,319.861847 
	C2034.705322,345.359344 2034.886597,370.857086 2034.822998,396.354309 
	C2034.813232,400.225494 2035.657471,402.177490 2040.033936,402.025177 
	C2047.856812,401.752838 2055.695801,401.899567 2063.527588,401.949280 
	C2066.650879,401.969116 2067.857666,400.948944 2067.658691,397.481720 
	C2067.219727,389.837128 2067.344482,382.160156 2067.231201,373.497559 
M1542.145386,370.499878 
	C1542.062622,289.529877 1541.976685,208.559845 1541.902710,127.589828 
	C1541.896606,120.845390 1541.553711,120.328865 1535.094849,120.145569 
	C1528.768066,119.966011 1522.419922,120.257782 1516.109619,119.874153 
	C1511.457275,119.591324 1510.126465,121.269417 1510.137695,125.845078 
	C1510.352783,213.311417 1510.391235,300.778198 1510.568481,388.244659 
	C1510.595093,401.418365 1510.830811,401.461975 1523.899170,401.707062 
	C1529.985107,401.821167 1536.075073,401.726532 1542.148560,401.726532 
	C1542.148560,391.095276 1542.148560,381.297607 1542.145386,370.499878 
z"/>
<path fill="#F5F2EB" opacity="1.000000" stroke="none" 
	d="
M2554.596191,490.905640 
	C2554.531738,470.765839 2554.466309,450.626007 2554.403809,430.486206 
	C2554.390869,426.322784 2554.389404,422.159332 2554.781006,417.377502 
	C2554.969727,414.145538 2554.760010,411.531982 2554.550049,408.918457 
	C2554.489746,406.592560 2554.429443,404.266632 2554.766113,401.359070 
	C2554.957031,398.491302 2554.750977,396.205200 2554.544922,393.919098 
	C2554.462646,372.764679 2554.324951,351.610291 2554.309326,330.455841 
	C2554.277344,286.634308 2554.310547,242.812698 2554.756836,198.377930 
	C2555.438477,196.330551 2555.889160,194.896698 2555.891113,193.462189 
	C2555.935059,164.125885 2555.926514,134.789490 2555.931152,105.453125 
	C2555.934326,85.302269 2555.940918,65.151405 2556.324707,45.066994 
	C2557.468994,47.358429 2558.760010,49.552086 2558.895020,51.814659 
	C2559.218994,57.247757 2558.874756,62.718201 2559.091553,68.161903 
	C2559.143311,69.464500 2560.333496,70.721786 2561.000000,71.999962 
	C2561.000000,212.166672 2561.003174,352.333344 2560.958740,492.500000 
	C2560.958252,494.000153 2560.333496,495.500061 2559.477539,496.586243 
	C2559.258545,492.963196 2558.805176,490.380310 2554.596191,490.905640 
z"/>
<path fill="#DAD3C4" opacity="1.000000" stroke="none" 
	d="
M5.817868,40.049492 
	C6.063110,58.851402 6.528870,77.653442 6.517653,96.455200 
	C6.447106,214.703598 6.270492,332.951965 5.719165,451.268402 
	C4.895276,428.805786 4.371690,406.276398 4.103501,383.743958 
	C3.907447,367.272095 4.051944,350.796295 4.031827,334.322235 
	C4.029236,332.200806 4.527237,329.673492 1.000000,330.000000 
	C1.000000,329.555542 1.000000,329.111115 1.412774,328.336823 
	C5.818487,327.010468 3.650743,323.806702 3.846878,321.627960 
	C3.917474,320.843719 2.006608,319.881165 1.000003,319.000000 
	C1.000000,251.645767 1.000000,184.291550 1.419236,116.470596 
	C2.564956,114.612610 3.887765,113.235161 3.920404,111.827789 
	C4.120789,103.187332 4.006329,94.540024 4.041025,85.895172 
	C4.083463,75.321571 4.020909,64.744164 4.304395,54.176456 
	C4.430988,49.457333 5.290812,44.757874 5.817868,40.049492 
z"/>
<path fill="#F9F3E8" opacity="1.000000" stroke="none" 
	d="
M1.000000,330.468658 
	C4.527237,329.673492 4.029236,332.200806 4.031827,334.322235 
	C4.051944,350.796295 3.907447,367.272095 4.103501,383.743958 
	C4.371690,406.276398 4.895276,428.805786 5.582541,451.643585 
	C5.908990,460.673492 5.962288,469.396271 5.670365,478.863403 
	C5.217505,480.756958 5.340886,481.990112 4.959586,483.039948 
	C3.740405,486.396515 2.334076,489.685150 1.000001,493.000000 
	C1.000000,438.979095 1.000000,384.958221 1.000000,330.468658 
z"/>
<path fill="#F9F2EC" opacity="1.000000" stroke="none" 
	d="
M5.894309,39.583149 
	C5.290812,44.757874 4.430988,49.457333 4.304395,54.176456 
	C4.020909,64.744164 4.083463,75.321571 4.041025,85.895172 
	C4.006329,94.540024 4.120789,103.187332 3.920404,111.827789 
	C3.887765,113.235161 2.564956,114.612610 1.419236,116.001938 
	C1.000000,78.979103 1.000000,41.958210 1.329585,4.480340 
	C2.909830,4.376497 4.160489,4.729629 5.411149,5.082760 
	C5.597682,16.427443 5.784216,27.772123 5.894309,39.583149 
z"/>
<path fill="#D0CDC6" opacity="1.000000" stroke="none" 
	d="
M2555.946045,45.000549 
	C2555.940918,65.151405 2555.934326,85.302269 2555.931152,105.453125 
	C2555.926514,134.789490 2555.935059,164.125885 2555.891113,193.462189 
	C2555.889160,194.896698 2555.438477,196.330551 2554.851318,197.923889 
	C2554.387207,197.100510 2554.162598,196.117706 2554.165039,195.135437 
	C2554.326172,130.660339 2554.505615,66.185287 2554.341797,1.355114 
	C2555.066650,1.000000 2556.133545,1.000000 2557.529785,1.381755 
	C2557.242920,4.780589 2556.154785,7.788128 2556.093750,10.816428 
	C2555.863281,22.207470 2555.967285,33.605278 2555.946045,45.000549 
z"/>
<path fill="#F5F4EF" opacity="1.000000" stroke="none" 
	d="
M2556.324707,45.066994 
	C2555.967285,33.605278 2555.863281,22.207470 2556.093750,10.816428 
	C2556.154785,7.788128 2557.242920,4.780589 2557.929688,1.381755 
	C2558.444580,1.000000 2558.888916,1.000000 2559.762207,1.228551 
	C2560.393311,1.738312 2560.662842,1.919279 2561.000000,2.000000 
	C2561.000000,25.020895 2561.000000,48.041790 2561.000000,71.531303 
	C2560.333496,70.721786 2559.143311,69.464500 2559.091553,68.161903 
	C2558.874756,62.718201 2559.218994,57.247757 2558.895020,51.814659 
	C2558.760010,49.552086 2557.468994,47.358429 2556.324707,45.066994 
z"/>
<path fill="#DAD3C4" opacity="1.000000" stroke="none" 
	d="
M1.000001,493.500000 
	C2.334076,489.685150 3.740405,486.396515 4.959586,483.039948 
	C5.340886,481.990112 5.217505,480.756958 5.590977,479.329346 
	C6.028272,484.786316 6.199735,490.521667 6.685599,496.628510 
	C5.115973,495.768066 0.518038,499.963928 1.000001,493.500000 
z"/>
<path fill="#D0CDC6" opacity="1.000000" stroke="none" 
	d="
M2554.452637,491.261017 
	C2558.805176,490.380310 2559.258545,492.963196 2558.977539,496.586243 
	C2558.250000,497.000000 2557.500000,497.000000 2556.255859,496.758789 
	C2555.441895,496.363525 2555.122070,496.209473 2554.802490,496.055450 
	C2554.638184,494.575775 2554.473633,493.096069 2554.452637,491.261017 
z"/>
<path fill="#F9F3E8" opacity="1.000000" stroke="none" 
	d="
M1.000003,319.449982 
	C2.006608,319.881165 3.917474,320.843719 3.846878,321.627960 
	C3.650743,323.806702 5.818487,327.010468 1.412774,328.003479 
	C1.000000,325.299988 1.000000,322.599976 1.000003,319.449982 
z"/>
<path fill="#DAD3C4" opacity="1.000000" stroke="none" 
	d="
M5.546947,4.672179 
	C4.160489,4.729629 2.909830,4.376497 1.329585,4.011683 
	C0.105714,0.029752 2.980598,1.085158 5.500038,1.000000 
	C5.894248,2.087199 5.788497,3.174398 5.546947,4.672179 
z"/>
<path fill="#D0CDC6" opacity="1.000000" stroke="none" 
	d="
M2561.000000,1.500000 
	C2560.662842,1.919279 2560.393311,1.738312 2560.095459,1.228551 
	C2560.333252,1.000000 2560.666748,1.000000 2561.000000,1.500000 
z"/>
<path fill="#F5F2EB" opacity="1.000000" stroke="none" 
	d="
M2554.749023,496.313080 
	C2555.122070,496.209473 2555.441895,496.363525 2555.880859,496.758789 
	C2556.000000,497.000000 2555.500000,497.000000 2555.250000,497.000000 
	C2554.898682,496.856903 2554.797119,496.713837 2554.749023,496.313080 
z"/>
<path fill="#FCFDFC" opacity="1.000000" stroke="none" 
	d="
M136.904785,210.891251 
	C154.988831,175.744904 183.320679,155.086990 221.901596,148.623108 
	C246.941147,144.427948 270.509552,149.104889 292.823730,160.959518 
	C303.776550,166.778290 309.359619,165.374176 316.497467,155.061752 
	C319.499237,150.724960 323.113037,147.417084 328.661865,145.461365 
	C328.853577,147.382767 329.110596,148.792328 329.117676,150.203140 
	C329.237305,174.011292 329.363861,197.819626 329.341949,221.627792 
	C329.340332,223.347458 328.207306,225.066071 327.600342,226.785187 
	C325.903320,225.914932 323.560638,225.484390 322.617950,224.100327 
	C317.851959,217.102966 313.533691,209.803070 308.903290,202.710526 
	C299.261505,187.941910 288.216614,174.585434 272.521240,165.681183 
	C246.789703,151.083252 207.531799,159.153030 194.554977,193.180862 
	C184.695663,219.033981 182.850296,245.665176 183.251373,272.722198 
	C183.531555,291.624573 186.229706,310.226654 193.060501,328.027527 
	C199.672455,345.258118 210.311569,359.088440 228.253098,365.146149 
	C241.236588,369.529816 254.804794,369.505615 268.049622,365.096466 
	C275.351196,362.665833 280.409271,357.673920 280.519562,349.904510 
	C280.762482,332.792175 280.357239,315.665009 279.900177,298.552368 
	C279.788177,294.358185 277.021240,291.533478 272.632111,290.876373 
	C266.058350,289.892303 259.489410,288.837646 252.885864,288.107758 
	C249.858612,287.773132 247.656479,286.961609 247.470947,283.585815 
	C247.251968,279.601562 250.475281,280.092102 252.744461,280.016479 
	C259.233917,279.800140 265.733795,279.884521 272.229645,279.875458 
	C297.390839,279.840332 322.552032,279.813324 347.713226,279.789337 
	C349.379211,279.787750 351.117950,279.540741 352.695160,279.927917 
	C355.411591,280.594727 358.027557,281.671051 360.685669,282.575500 
	C358.153748,284.391510 355.866943,287.111786 353.049744,287.875610 
	C335.777649,292.558197 334.691925,293.677856 334.090881,311.689697 
	C333.701965,323.344849 333.516235,335.007935 333.002716,346.657043 
	C332.850616,350.107635 332.445801,353.755066 331.130554,356.880432 
	C330.081604,359.372955 327.875671,362.282501 325.496155,363.175201 
	C291.280884,376.011322 256.230621,384.299225 219.438263,378.260712 
	C181.306778,372.002319 153.608231,350.736450 136.226440,316.508240 
	C118.454391,281.511566 120.617752,246.251419 136.904785,210.891251 
z"/>
<path fill="#FCFCFC" opacity="1.000000" stroke="none" 
	d="
M1703.856201,172.993439 
	C1703.865723,164.869507 1703.865723,157.244370 1703.865723,148.779480 
	C1769.473999,148.779480 1834.514526,148.779480 1900.346069,148.779480 
	C1900.346069,171.524704 1900.346069,193.830978 1900.346069,216.490173 
	C1895.579224,215.798004 1894.140381,212.678665 1892.888306,209.439514 
	C1890.196655,202.475616 1888.055786,195.250778 1884.816284,188.555298 
	C1873.093018,164.326492 1856.813843,157.032654 1829.967041,161.273056 
	C1829.781372,164.481110 1829.415771,167.761719 1829.427734,171.040955 
	C1829.633667,227.350494 1829.625610,283.662903 1830.280884,339.967529 
	C1830.488647,357.819702 1830.245239,355.212646 1846.494873,359.201080 
	C1849.558105,359.952942 1852.704224,360.361572 1855.794434,361.012726 
	C1857.086182,361.284912 1858.778809,361.398590 1859.500610,362.251587 
	C1860.789429,363.774719 1861.479736,365.804291 1862.420410,367.621979 
	C1860.901367,368.301331 1859.387451,369.555054 1857.862427,369.568573 
	C1846.369751,369.670227 1834.874878,369.532227 1823.380615,369.460938 
	C1798.224365,369.304901 1773.067627,369.193848 1747.913208,368.889130 
	C1745.935303,368.865173 1743.973877,367.479279 1742.004883,366.726288 
	C1743.587158,364.751862 1744.789795,361.860962 1746.838501,361.012390 
	C1750.124146,359.651459 1753.952271,359.477814 1757.581909,359.091309 
	C1772.096558,357.545746 1774.701904,354.884552 1774.797974,340.333862 
	C1775.188232,281.192688 1775.503418,222.051056 1775.845703,162.909592 
	C1775.850342,162.112167 1775.846313,161.314697 1775.846313,160.523926 
	C1744.454834,160.036209 1729.220459,162.610825 1716.782227,196.504684 
	C1715.122803,201.027008 1713.858643,205.702438 1712.038086,210.154312 
	C1711.080200,212.496887 1709.314575,214.509216 1707.913818,216.670685 
	C1707.260254,216.644440 1706.606689,216.618195 1705.953125,216.591949 
	C1705.028687,211.881348 1703.438721,207.187531 1703.319336,202.456604 
	C1703.075684,192.812393 1703.624390,183.148209 1703.856201,172.993439 
z"/>
<path fill="#FCFCFC" opacity="1.000000" stroke="none" 
	d="
M2392.346680,163.444077 
	C2385.551270,161.303284 2378.745361,159.194351 2371.967529,156.999496 
	C2370.257080,156.445587 2368.296631,155.970520 2367.078369,154.804108 
	C2366.073242,153.841675 2365.624756,151.897369 2365.682129,150.417252 
	C2365.706055,149.796768 2367.614746,148.955124 2368.766113,148.736557 
	C2370.875244,148.336060 2373.059326,148.157288 2375.209717,148.175217 
	C2394.034912,148.332031 2412.859863,148.542023 2431.684082,148.769928 
	C2433.774170,148.795227 2435.861816,149.030792 2439.636963,149.280289 
	C2437.242188,151.941254 2436.102783,154.112289 2434.315918,155.049118 
	C2420.536133,162.273148 2412.230225,174.573822 2404.540527,187.265396 
	C2389.030518,212.864792 2373.887451,238.686783 2358.598633,264.420349 
	C2354.754150,270.891418 2353.264404,277.777557 2353.527100,285.402893 
	C2354.231689,305.867035 2354.419189,326.348969 2354.809570,346.823914 
	C2354.919678,352.593384 2357.939941,356.035370 2363.338379,357.682068 
	C2369.223389,359.477325 2375.160645,361.151062 2380.905029,363.327148 
	C2382.736572,364.020905 2384.024414,366.150055 2385.561035,367.622437 
	C2383.700439,368.342896 2381.839111,369.691620 2379.979736,369.688843 
	C2355.153076,369.651978 2330.326904,369.433838 2305.500488,369.243439 
	C2295.502686,369.166748 2285.499756,369.204407 2275.512695,368.827911 
	C2273.271484,368.743439 2269.487793,367.515869 2269.174561,366.171265 
	C2268.193115,361.960449 2271.897705,361.321747 2275.126709,360.716888 
	C2279.212402,359.951569 2283.275879,359.067505 2287.344727,358.213806 
	C2293.455811,356.931671 2296.942627,352.884186 2297.949951,347.022003 
	C2298.904541,341.466431 2299.464844,335.792328 2299.595215,330.156372 
	C2299.884521,317.666809 2300.364258,305.134552 2299.622314,292.687927 
	C2299.247559,286.397583 2297.491699,279.645020 2294.463623,274.145966 
	C2275.157715,239.087082 2255.315674,204.323730 2235.672607,169.450638 
	C2232.426025,163.687012 2227.864746,159.738297 2221.425293,157.753143 
	C2218.811035,156.947159 2216.416748,155.207138 2214.164062,153.560791 
	C2213.308350,152.935318 2212.759033,151.361465 2212.812500,150.255768 
	C2212.837158,149.749191 2214.634033,148.992065 2215.664062,148.926834 
	C2220.981934,148.589951 2226.312500,148.242676 2231.637695,148.258255 
	C2260.460449,148.342575 2289.283691,148.510651 2318.105713,148.734818 
	C2320.101562,148.750336 2322.092041,149.455139 2324.165771,149.854950 
	C2322.929199,155.215759 2319.356445,156.281235 2315.426270,156.936401 
	C2309.085693,157.993317 2302.755371,159.112030 2295.236084,160.408997 
	C2297.813232,167.641083 2299.419922,174.305283 2302.445557,180.246902 
	C2312.632568,200.253021 2323.348145,219.989685 2333.808350,239.857468 
	C2336.752930,245.450058 2339.487793,251.152756 2342.381592,256.772827 
	C2343.121338,258.209747 2344.100098,259.523865 2345.504883,261.739746 
	C2349.859863,254.456970 2353.879883,247.888321 2357.749756,241.232162 
	C2367.104248,225.141983 2376.566406,209.109726 2385.608154,192.844543 
	C2388.951172,186.830917 2391.238037,180.230240 2394.388428,173.433075 
	C2396.364746,170.245621 2397.959473,167.522400 2399.734619,164.490829 
	C2396.779785,164.072205 2394.563232,163.758163 2392.346680,163.444077 
z"/>
<path fill="#FCFCFC" opacity="1.000000" stroke="none" 
	d="
M716.000793,178.998901 
	C743.234009,152.984009 775.432251,143.276627 812.123474,147.997864 
	C826.484741,149.845810 839.464294,156.102203 852.368103,162.249741 
	C861.964722,166.821640 864.001709,166.482407 870.390320,157.855713 
	C873.255127,153.987274 876.035278,150.037689 879.178162,146.405487 
	C880.062927,145.383041 882.192871,144.831100 883.562927,145.084427 
	C884.278076,145.216660 885.006165,147.566879 885.010437,148.917603 
	C885.089905,173.907104 885.073669,198.897003 885.024658,223.886688 
	C885.021484,225.502869 884.588623,227.118195 884.124268,230.338013 
	C881.156738,227.146759 878.641052,225.098587 876.959473,222.508820 
	C872.073425,214.984039 867.746399,207.093185 862.788269,199.619156 
	C854.544617,187.192413 845.054260,175.965408 832.136169,167.918076 
	C813.685120,156.423981 782.558350,154.330246 763.348816,172.884399 
	C753.159546,182.725983 747.419495,195.184540 744.577087,208.645782 
	C737.340759,242.915863 736.432678,277.352264 744.227234,311.742371 
	C749.848206,336.542175 763.722961,354.138092 788.614380,361.694305 
	C803.809265,366.306976 818.776367,363.461884 833.223389,358.351562 
	C849.462158,352.607483 863.795471,343.709106 874.935974,330.165222 
	C876.771118,327.934143 879.346191,326.102203 881.932556,324.773224 
	C883.616150,323.908112 885.939087,324.287201 887.975586,324.108887 
	C887.878479,326.189850 888.438293,328.616425 887.559814,330.286316 
	C885.027039,335.100677 882.603760,340.266327 878.920288,344.135162 
	C849.244141,375.304474 812.720093,386.030762 770.997620,377.667511 
	C727.922485,369.033112 700.087158,342.078094 685.761719,301.254028 
	C679.147522,282.405121 679.775391,262.610504 682.488037,242.922699 
	C685.965454,217.683701 697.144714,196.545502 716.000793,178.998901 
z"/>
<path fill="#FDFDFD" opacity="1.000000" stroke="none" 
	d="
M1340.000488,369.452942 
	C1312.609619,369.171234 1285.718750,368.907196 1258.615112,368.641083 
	C1258.713257,363.092529 1260.896606,360.722321 1265.055908,359.966766 
	C1270.282349,359.017426 1275.515869,358.100006 1280.722778,357.052002 
	C1285.695557,356.051208 1288.044189,352.698425 1288.228271,347.832886 
	C1288.542847,339.513062 1288.883423,331.187500 1288.891968,322.864014 
	C1288.939453,277.049866 1288.923828,231.235565 1288.829712,185.421539 
	C1288.817749,179.603180 1288.347900,173.775040 1287.850464,167.971970 
	C1287.487549,163.739868 1285.602295,161.018646 1280.718872,160.606491 
	C1275.607788,160.175110 1270.514038,159.105026 1265.527710,157.855286 
	C1263.683472,157.393036 1261.572876,155.975922 1260.628784,154.377167 
	C1258.883911,151.422333 1259.610352,148.833527 1263.615112,148.398270 
	C1265.762451,148.164871 1267.934570,148.037491 1270.093994,148.053772 
	C1302.409790,148.297684 1334.725830,148.534454 1367.039795,148.937958 
	C1369.001343,148.962433 1370.945679,150.371063 1372.897949,151.135651 
	C1371.170410,152.814346 1369.712280,155.382721 1367.664185,156.002945 
	C1361.798828,157.779144 1355.709961,158.846024 1349.677002,160.029114 
	C1346.494019,160.653320 1344.832275,162.053314 1344.772705,165.592117 
	C1344.450195,184.738846 1343.609741,203.882263 1343.588257,223.027527 
	C1343.541992,264.341949 1343.964966,305.656830 1343.972412,346.971558 
	C1343.973267,352.339569 1345.691284,355.217133 1350.982300,356.534210 
	C1356.611450,357.935455 1362.079834,359.997742 1367.587158,361.863495 
	C1369.302856,362.444702 1371.231934,362.992218 1372.480835,364.171783 
	C1373.530640,365.163269 1374.147217,367.061890 1374.106323,368.535400 
	C1374.090454,369.110840 1371.750610,370.098999 1370.476807,370.087006 
	C1360.483521,369.992706 1350.492188,369.701263 1340.000488,369.452942 
z"/>
<path fill="#FCFCFD" opacity="1.000000" stroke="none" 
	d="
M1062.449219,164.000854 
	C1062.450195,248.446243 1062.450195,332.391663 1062.450195,417.044952 
	C1052.561890,417.044952 1042.806641,417.107178 1033.055664,416.925751 
	C1032.283081,416.911377 1031.111206,415.304504 1030.876587,414.267578 
	C1030.404175,412.180878 1030.304688,409.976776 1030.303467,407.820984 
	C1030.248901,314.533783 1030.221680,221.246552 1030.196411,127.959343 
	C1030.196167,126.627266 1030.309082,125.294502 1030.289307,123.963249 
	C1030.249390,121.282516 1031.429565,119.980103 1034.210205,120.068230 
	C1042.032593,120.316154 1049.856689,120.580803 1057.681641,120.642639 
	C1061.515747,120.672943 1062.358765,122.624199 1062.340332,126.020401 
	C1062.272217,138.513321 1062.396484,151.007278 1062.449219,164.000854 
z"/>
<path fill="#FBFBFB" opacity="1.000000" stroke="none" 
	d="
M536.861206,137.004913 
	C536.837646,228.652725 536.773682,319.801971 536.919800,410.950897 
	C536.927429,415.718597 535.336304,417.139923 531.024475,417.062378 
	C524.694763,416.948547 518.351196,416.823944 512.032715,417.116791 
	C507.343079,417.334167 505.628326,415.696869 505.620911,410.887329 
	C505.587280,389.059540 505.037231,367.232025 505.056335,345.404755 
	C505.120209,272.419647 505.348297,199.434708 505.512909,126.449699 
	C505.516632,124.799171 505.513428,123.148628 505.513428,120.635536 
	C515.328979,120.635536 524.758484,120.523743 534.176208,120.804977 
	C535.139648,120.833740 536.716003,123.160828 536.829529,124.519859 
	C537.161072,128.488602 536.895752,132.507217 536.861206,137.004913 
z"/>
<path fill="#FDFDFE" opacity="1.000000" stroke="none" 
	d="
M2067.235352,373.996979 
	C2067.344482,382.160156 2067.219727,389.837128 2067.658691,397.481720 
	C2067.857666,400.948944 2066.650879,401.969116 2063.527588,401.949280 
	C2055.695801,401.899567 2047.856812,401.752838 2040.033936,402.025177 
	C2035.657471,402.177490 2034.813232,400.225494 2034.822998,396.354309 
	C2034.886597,370.857086 2034.705322,345.359344 2034.720459,319.861847 
	C2034.757935,256.700775 2034.850830,193.539673 2034.940308,130.378616 
	C2034.955078,120.000458 2034.999756,119.976341 2045.374756,119.977760 
	C2050.706787,119.978493 2056.040527,120.183487 2061.370605,120.108940 
	C2065.524658,120.050858 2067.092041,121.557228 2067.086182,126.019638 
	C2066.989014,199.679733 2067.061768,273.340027 2067.108154,347.000305 
	C2067.113525,355.832764 2067.188477,364.665131 2067.235352,373.996979 
z"/>
<path fill="#FBFCFC" opacity="1.000000" stroke="none" 
	d="
M1542.146973,370.999908 
	C1542.148560,381.297607 1542.148560,391.095276 1542.148560,401.726532 
	C1536.075073,401.726532 1529.985107,401.821167 1523.899170,401.707062 
	C1510.830811,401.461975 1510.595093,401.418365 1510.568481,388.244659 
	C1510.391235,300.778198 1510.352783,213.311417 1510.137695,125.845078 
	C1510.126465,121.269417 1511.457275,119.591324 1516.109619,119.874153 
	C1522.419922,120.257782 1528.768066,119.966011 1535.094849,120.145569 
	C1541.553711,120.328865 1541.896606,120.845390 1541.902710,127.589828 
	C1541.976685,208.559845 1542.062622,289.529877 1542.146973,370.999908 
z"/>
<path fill="#282726" opacity="1.000000" stroke="none" 
	d="
M2392.171875,163.809998 
	C2394.563232,163.758163 2396.779785,164.072205 2399.734619,164.490829 
	C2397.959473,167.522400 2396.364746,170.245621 2394.423828,173.052917 
	C2392.547852,170.344116 2389.677002,167.862610 2392.171875,163.809998 
z"/>
<path fill="#D0CDC6" opacity="1.000000" stroke="none" 
	d="
M2554.402344,409.353210 
	C2554.760010,411.531982 2554.969727,414.145538 2554.872559,416.923523 
	C2554.461914,414.654633 2554.358154,412.221313 2554.402344,409.353210 
z"/>
<path fill="#D0CDC6" opacity="1.000000" stroke="none" 
	d="
M2554.398438,394.349060 
	C2554.750977,396.205200 2554.957031,398.491302 2554.859619,400.932159 
	C2554.454834,398.984253 2554.353516,396.881622 2554.398438,394.349060 
z"/>
</svg>