<?xml version="1.0" standalone="no"?>
<!DOCTYPE svg PUBLIC "-//W3C//DTD SVG 20010904//EN"
 "http://www.w3.org/TR/2001/REC-SVG-20010904/DTD/svg10.dtd">
<svg version="1.0" xmlns="http://www.w3.org/2000/svg"
 width="640.000000pt" height="124.000000pt" viewBox="0 0 640.000000 124.000000"
 preserveAspectRatio="xMidYMid meet">

<g transform="translate(0.000000,124.000000) scale(0.100000,-0.100000)"
fill="#000000" stroke="none">
<path d="M10 620 l0 -620 3189 0 3189 0 -1 620 -1 620 -3188 0 -3188 0 0 -620z
m1330 -50 l0 -370 -40 0 -40 0 0 370 0 370 40 0 40 0 0 -370z m1310 -1 l0
-370 -37 3 -38 3 -3 355 c-1 195 0 361 3 367 2 7 20 13 40 13 l35 0 0 -371z
m1200 20 l0 -350 -37 3 -38 3 -3 335 c-1 184 0 341 3 347 2 7 20 13 40 13 l35
0 0 -351z m1318 -1 l4 -348 -40 0 -39 0 -7 61 c-8 80 -8 484 1 572 l6 68 36
-3 36 -3 3 -347z m-3064 259 l49 -21 23 27 c13 15 26 27 29 27 3 0 5 -48 5
-107 -1 -98 -2 -106 -16 -88 -8 11 -29 40 -47 65 -47 64 -90 90 -149 90 -60 0
-92 -20 -121 -74 -20 -36 -22 -56 -22 -176 0 -120 2 -140 22 -176 29 -55 96
-89 155 -80 51 8 113 40 140 71 21 25 48 33 48 16 0 -20 -51 -68 -102 -96 -45
-25 -64 -29 -129 -30 -65 0 -84 4 -134 30 -242 124 -188 493 78 544 54 11 110
4 171 -22z m-1393 2 l50 -22 23 22 c12 11 25 21 29 21 4 0 7 -43 7 -95 0 -52
-4 -95 -9 -95 -5 0 -21 20 -35 44 -52 89 -131 134 -202 114 -85 -23 -118 -107
-112 -277 6 -167 51 -236 154 -236 73 0 84 13 84 99 0 79 -9 96 -52 96 -15 0
-28 5 -28 10 0 6 54 10 141 10 91 0 138 -4 134 -10 -3 -5 -12 -10 -20 -10 -31
0 -45 -30 -45 -98 0 -37 -4 -72 -8 -79 -14 -22 -126 -47 -212 -48 -73 0 -93 4
-142 28 -61 30 -96 65 -131 131 -17 33 -22 58 -22 126 0 73 4 92 27 135 24 45
52 78 100 114 59 45 189 54 269 20z m2719 12 c0 -5 -16 -12 -35 -15 l-35 -7 0
-240 0 -240 35 -15 c19 -8 35 -16 35 -19 0 -3 -63 -5 -140 -5 -138 0 -171 8
-107 26 l32 10 0 239 0 239 -32 8 c-69 18 -31 28 107 28 77 0 140 -4 140 -9z
m1320 -76 c0 -47 -2 -85 -5 -85 -3 0 -16 24 -29 54 -28 63 -57 86 -108 86
l-38 0 0 -229 c0 -126 3 -236 6 -245 3 -8 21 -18 40 -22 74 -14 27 -24 -111
-24 -90 0 -145 4 -145 10 0 6 9 10 20 10 11 0 29 9 40 20 19 19 20 33 20 250
l0 230 -39 0 c-51 0 -97 -37 -111 -90 -19 -69 -30 -56 -30 34 l0 86 245 0 245
0 0 -85z m1055 75 c-3 -5 -17 -10 -31 -10 -14 0 -27 -7 -30 -15 -6 -15 104
-235 118 -235 11 0 128 204 128 224 0 2 -19 12 -42 22 l-43 19 89 3 c49 2 91
0 94 -2 3 -3 -8 -16 -23 -28 -30 -23 -116 -152 -159 -236 -21 -42 -26 -65 -26
-129 0 -104 6 -123 42 -130 70 -14 28 -23 -106 -23 -137 0 -185 10 -116 24 38
7 50 36 50 120 0 52 -6 73 -36 131 -64 123 -134 233 -162 254 l-27 20 143 1
c93 0 141 -4 137 -10z"/>
</g>
</svg>
